solid Double D
facet normal 0.0 0.0 -1.0
  outer loop
    vertex 63.30156713988044 45.01275987959756 0.0
    vertex 62.506261740505046 29.38838215500578 0.0
    vertex 62.506261740505046 44.457053963804796 0.0
  endloop
endfacet
facet normal 0.0 0.0 -1.0
  outer loop
    vertex 62.506261740505046 29.38838215500578 0.0
    vertex 63.30156713988044 45.01275987959756 0.0
    vertex 63.14966072176244 29.71132389766462 0.0
  endloop
endfacet
facet normal 0.0 0.0 -1.0
  outer loop
    vertex 63.14966072176244 29.71132389766462 0.0
    vertex 63.30156713988044 45.01275987959756 0.0
    vertex 73.61688632459544 38.72425268426964 0.0
  endloop
endfacet
facet normal 0.0 0.0 -1.0
  outer loop
    vertex 73.61688632459544 38.72425268426964 0.0
    vertex 63.30156713988044 45.01275987959756 0.0
    vertex 70.99376165393707 53.31320548332652 0.0
  endloop
endfacet
facet normal 0.0 0.0 -1.0
  outer loop
    vertex 73.61688632459544 38.72425268426964 0.0
    vertex 70.99376165393707 53.31320548332652 0.0
    vertex 73.61688632459544 57.75095108374251 0.0
  endloop
endfacet
facet normal 0.0 0.0 -1.0
  outer loop
    vertex 81.06613832231201 80.80129386940106 0.0
    vertex 73.61688632459544 57.75095108374251 0.0
    vertex 73.61688632459544 83.91867124793508 0.0
  endloop
endfacet
facet normal 0.0 0.0 -1.0
  outer loop
    vertex 73.61688632459544 57.75095108374251 0.0
    vertex 81.06613832231201 80.80129386940106 0.0
    vertex 76.75222357382043 63.055246849477626 0.0
  endloop
endfacet
facet normal 0.0 0.0 -1.0
  outer loop
    vertex 76.75222357382043 63.055246849477626 0.0
    vertex 81.06613832231201 80.80129386940106 0.0
    vertex 80.31537184007257 73.79634679758585 0.0
  endloop
endfacet
facet normal -0.3860417603330135 -0.9224813056528509 0.0
  outer loop
    vertex 54.02506187702137 131.56620880810073 35.93522243397542
    vertex 43.5856358317234 135.93492000332765 0.0
    vertex 54.02506187702137 131.56620880810073 0.0
  endloop
endfacet
facet normal -0.3860417603330135 -0.9224813056528509 0.0
  outer loop
    vertex 43.5856358317234 135.93492000332765 0.0
    vertex 54.02506187702137 131.56620880810073 35.93522243397542
    vertex 43.5856358317234 135.93492000332765 35.93522243397542
  endloop
endfacet
facet normal -0.5727649533927807 -0.8197196521768683 0.0
  outer loop
    vertex 63.30156713988044 125.0844109270577 35.93522243397542
    vertex 54.02506187702137 131.56620880810073 0.0
    vertex 63.30156713988044 125.0844109270577 0.0
  endloop
endfacet
facet normal -0.5727649533927807 -0.8197196521768683 0.0
  outer loop
    vertex 54.02506187702137 131.56620880810073 0.0
    vertex 63.30156713988044 125.0844109270577 35.93522243397542
    vertex 54.02506187702137 131.56620880810073 35.93522243397542
  endloop
endfacet
facet normal -0.7334700073360013 -0.679721816876968 0.0
  outer loop
    vertex 63.30156713988044 125.0844109270577 35.93522243397542
    vertex 70.99376165393709 116.78396532332876 0.0
    vertex 70.99376165393709 116.78396532332876 35.93522243397542
  endloop
endfacet
facet normal -0.7334700073360013 -0.679721816876968 0.0
  outer loop
    vertex 70.99376165393709 116.78396532332876 0.0
    vertex 63.30156713988044 125.0844109270577 35.93522243397542
    vertex 63.30156713988044 125.0844109270577 0.0
  endloop
endfacet
facet normal -0.8608568134087172 -0.5088472725757592 0.0
  outer loop
    vertex 70.99376165393709 116.78396532332876 35.93522243397542
    vertex 76.75222357382043 107.04192395717764 0.0
    vertex 76.75222357382043 107.04192395717764 35.93522243397542
  endloop
endfacet
facet normal -0.8608568134087172 -0.5088472725757592 0.0
  outer loop
    vertex 76.75222357382043 107.04192395717764 0.0
    vertex 70.99376165393709 116.78396532332876 35.93522243397542
    vertex 70.99376165393709 116.78396532332876 0.0
  endloop
endfacet
facet normal -0.9491387612005289 -0.314858082295382 0.0
  outer loop
    vertex 76.75222357382043 107.04192395717764 35.93522243397542
    vertex 80.31537184007259 96.3008240090694 0.0
    vertex 80.31537184007259 96.3008240090694 35.93522243397542
  endloop
endfacet
facet normal -0.9491387612005289 -0.314858082295382 0.0
  outer loop
    vertex 80.31537184007259 96.3008240090694 0.0
    vertex 76.75222357382043 107.04192395717764 35.93522243397542
    vertex 76.75222357382043 107.04192395717764 0.0
  endloop
endfacet
facet normal -0.9943055983635575 -0.10656630359962832 4.209088947962239e-20
  outer loop
    vertex 80.31537184007259 96.3008240090694 35.93522243397542
    vertex 80.40046621323397 95.5068599813644 29.252519599999996
    vertex 80.40046621323397 95.5068599813644 35.93522243397542
  endloop
endfacet
facet normal -0.9943055983635575 -0.10656630359962832 4.209088947962239e-20
  outer loop
    vertex 80.40046621323397 95.5068599813644 29.252519599999996
    vertex 80.31537184007259 96.3008240090694 35.93522243397542
    vertex 80.40046621323397 95.5068599813644 0.0
  endloop
endfacet
facet normal -0.9943055983635575 -0.10656630359962832 4.209088947962239e-20
  outer loop
    vertex 80.40046621323397 95.5068599813644 0.0
    vertex 80.31537184007259 96.3008240090694 35.93522243397542
    vertex 80.31537184007259 96.3008240090694 0.0
  endloop
endfacet
facet normal -0.9491387612005291 0.3148580822953814 0.0
  outer loop
    vertex 80.31537184007257 73.79634679758585 35.93522243397542
    vertex 76.75222357382043 63.055246849477626 0.0
    vertex 76.75222357382043 63.055246849477626 35.93522243397542
  endloop
endfacet
facet normal -0.9491387612005291 0.3148580822953814 0.0
  outer loop
    vertex 76.75222357382043 63.055246849477626 0.0
    vertex 80.31537184007257 73.79634679758585 35.93522243397542
    vertex 80.31537184007257 73.79634679758585 0.0
  endloop
endfacet
facet normal -0.7334700073360026 0.6797218168769664 0.0
  outer loop
    vertex 70.99376165393707 53.31320548332652 35.93522243397542
    vertex 63.30156713988044 45.01275987959756 0.0
    vertex 63.30156713988044 45.01275987959756 35.93522243397542
  endloop
endfacet
facet normal -0.7334700073360026 0.6797218168769664 0.0
  outer loop
    vertex 63.30156713988044 45.01275987959756 0.0
    vertex 70.99376165393707 53.31320548332652 35.93522243397542
    vertex 70.99376165393707 53.31320548332652 0.0
  endloop
endfacet
facet normal -0.386041760333013 0.922481305652851 -0.0
  outer loop
    vertex 43.5856358317234 34.162250803327645 35.93522243397542
    vertex 54.02506187702136 38.53096199855453 0.0
    vertex 43.5856358317234 34.162250803327645 0.0
  endloop
endfacet
facet normal -0.386041760333013 0.922481305652851 -0.0
  outer loop
    vertex 54.02506187702136 38.53096199855453 0.0
    vertex 43.5856358317234 34.162250803327645 35.93522243397542
    vertex 54.02506187702136 38.53096199855453 35.93522243397542
  endloop
endfacet
facet normal -0.0 -0.0 1.0
  outer loop
    vertex 32.475011247633006 18.779534550939186 35.93522243397542
    vertex 43.5856358317234 34.162250803327645 35.93522243397542
    vertex 32.475011247633006 152.03999955093917 35.93522243397542
  endloop
endfacet
facet normal -0.0 -0.0 1.0
  outer loop
    vertex 43.5856358317234 34.162250803327645 35.93522243397542
    vertex 32.475011247633006 18.779534550939186 35.93522243397542
    vertex 48.48719214726352 22.35177983392451 35.93522243397542
  endloop
endfacet
facet normal -0.0 -0.0 1.0
  outer loop
    vertex 43.5856358317234 34.162250803327645 35.93522243397542
    vertex 48.48719214726352 22.35177983392451 35.93522243397542
    vertex 54.02506187702136 38.53096199855453 35.93522243397542
  endloop
endfacet
facet normal -0.0 -0.0 1.0
  outer loop
    vertex 54.02506187702136 38.53096199855453 35.93522243397542
    vertex 48.48719214726352 22.35177983392451 35.93522243397542
    vertex 62.506261740505046 29.38838215500578 35.93522243397542
  endloop
endfacet
facet normal -0.0 -0.0 1.0
  outer loop
    vertex 54.02506187702136 38.53096199855453 35.93522243397542
    vertex 62.506261740505046 29.38838215500578 35.93522243397542
    vertex 62.506261740505046 44.457053963804796 35.93522243397542
  endloop
endfacet
facet normal -0.0 -0.0 1.0
  outer loop
    vertex 62.506261740505046 44.457053963804796 35.93522243397542
    vertex 62.506261740505046 29.38838215500578 35.93522243397542
    vertex 63.14966072176244 29.71132389766462 35.93522243397542
  endloop
endfacet
facet normal -0.0 -0.0 1.0
  outer loop
    vertex 62.506261740505046 44.457053963804796 35.93522243397542
    vertex 63.14966072176244 29.71132389766462 35.93522243397542
    vertex 63.30156713988044 45.01275987959756 35.93522243397542
  endloop
endfacet
facet normal -0.0 -0.0 1.0
  outer loop
    vertex 63.30156713988044 45.01275987959756 35.93522243397542
    vertex 63.14966072176244 29.71132389766462 35.93522243397542
    vertex 73.61688632459544 38.72425268426964 35.93522243397542
  endloop
endfacet
facet normal -0.0 -0.0 1.0
  outer loop
    vertex 63.30156713988044 45.01275987959756 35.93522243397542
    vertex 73.61688632459544 38.72425268426964 35.93522243397542
    vertex 70.99376165393707 53.31320548332652 35.93522243397542
  endloop
endfacet
facet normal -0.0 -0.0 1.0
  outer loop
    vertex 70.99376165393707 53.31320548332652 35.93522243397542
    vertex 73.61688632459544 38.72425268426964 35.93522243397542
    vertex 73.61688632459544 57.75095108374251 35.93522243397542
  endloop
endfacet
facet normal -0.0 -0.0 1.0
  outer loop
    vertex 73.61688632459544 57.75095108374251 35.93522243397542
    vertex 73.61688632459544 38.72425268426964 35.93522243397542
    vertex 75.58178072176867 40.416148316110075 35.93522243397542
  endloop
endfacet
facet normal -0.0 -0.0 1.0
  outer loop
    vertex 73.61688632459544 57.75095108374251 35.93522243397542
    vertex 75.58178072176867 40.416148316110075 35.93522243397542
    vertex 76.75222357382043 63.055246849477626 35.93522243397542
  endloop
endfacet
facet normal -0.0 -0.0 1.0
  outer loop
    vertex 76.75222357382043 63.055246849477626 35.93522243397542
    vertex 75.58178072176867 40.416148316110075 35.93522243397542
    vertex 85.03687190904084 53.82331521164281 35.93522243397542
  endloop
endfacet
facet normal -0.0 -0.0 1.0
  outer loop
    vertex 76.75222357382043 63.055246849477626 35.93522243397542
    vertex 85.03687190904084 53.82331521164281 35.93522243397542
    vertex 80.31537184007257 73.79634679758585 35.93522243397542
  endloop
endfacet
facet normal -0.0 -0.0 1.0
  outer loop
    vertex 80.31537184007257 73.79634679758585 35.93522243397542
    vertex 85.03687190904084 53.82331521164281 35.93522243397542
    vertex 81.06613832231201 80.80129386940106 35.93522243397542
  endloop
endfacet
facet normal -0.0 -0.0 1.0
  outer loop
    vertex 81.06613832231201 80.80129386940106 35.93522243397542
    vertex 85.03687190904084 53.82331521164281 35.93522243397542
    vertex 81.5213486317234 85.04858540332762 35.93522243397542
  endloop
endfacet
facet normal -0.0 -0.0 1.0
  outer loop
    vertex 81.5213486317234 85.04858540332762 35.93522243397542
    vertex 85.03687190904084 53.82331521164281 35.93522243397542
    vertex 85.03687190904083 116.99621889023557 35.93522243397542
  endloop
endfacet
facet normal -0.0 -0.0 1.0
  outer loop
    vertex 85.03687190904083 116.99621889023557 35.93522243397542
    vertex 85.03687190904084 53.82331521164281 35.93522243397542
    vertex 90.94705609865937 101.69195163011872 35.93522243397542
  endloop
endfacet
facet normal -0.0 -0.0 1.0
  outer loop
    vertex 90.94705609865937 101.69195163011872 35.93522243397542
    vertex 85.03687190904084 53.82331521164281 35.93522243397542
    vertex 90.94705609865937 69.12758247175967 35.93522243397542
  endloop
endfacet
facet normal -0.0 -0.0 1.0
  outer loop
    vertex 90.94705609865937 101.69195163011872 35.93522243397542
    vertex 90.94705609865937 69.12758247175967 35.93522243397542
    vertex 91.58442119819043 74.28982399189191 35.93522243397542
  endloop
endfacet
facet normal -0.0 -0.0 1.0
  outer loop
    vertex 90.94705609865937 101.69195163011872 35.93522243397542
    vertex 91.58442119819043 74.28982399189191 35.93522243397542
    vertex 92.45793140670956 89.45484725666337 35.93522243397542
  endloop
endfacet
facet normal -0.0 -0.0 1.0
  outer loop
    vertex 92.45793140670956 89.45484725666337 35.93522243397542
    vertex 91.58442119819043 74.28982399189191 35.93522243397542
    vertex 92.957364247633 85.40976705093918 35.93522243397542
  endloop
endfacet
facet normal -0.0 -0.0 1.0
  outer loop
    vertex 32.475011247633006 152.03999955093917 35.93522243397542
    vertex 43.5856358317234 135.93492000332765 35.93522243397542
    vertex 48.487192147263464 148.46775426795386 35.93522243397542
  endloop
endfacet
facet normal -0.0 -0.0 1.0
  outer loop
    vertex 43.5856358317234 135.93492000332765 35.93522243397542
    vertex 32.475011247633006 152.03999955093917 35.93522243397542
    vertex 43.5856358317234 34.162250803327645 35.93522243397542
  endloop
endfacet
facet normal -0.0 -0.0 1.0
  outer loop
    vertex 48.487192147263464 148.46775426795386 35.93522243397542
    vertex 43.5856358317234 135.93492000332765 35.93522243397542
    vertex 54.02506187702137 131.56620880810073 35.93522243397542
  endloop
endfacet
facet normal -0.0 -0.0 1.0
  outer loop
    vertex 48.487192147263464 148.46775426795386 35.93522243397542
    vertex 54.02506187702137 131.56620880810073 35.93522243397542
    vertex 63.1496607217624 141.10821020421375 35.93522243397542
  endloop
endfacet
facet normal -0.0 -0.0 1.0
  outer loop
    vertex 63.1496607217624 141.10821020421375 35.93522243397542
    vertex 54.02506187702137 131.56620880810073 35.93522243397542
    vertex 63.30156713988044 125.0844109270577 35.93522243397542
  endloop
endfacet
facet normal -0.0 -0.0 1.0
  outer loop
    vertex 63.1496607217624 141.10821020421375 35.93522243397542
    vertex 63.30156713988044 125.0844109270577 35.93522243397542
    vertex 75.58178072176864 130.4033857857683 35.93522243397542
  endloop
endfacet
facet normal -0.0 -0.0 1.0
  outer loop
    vertex 75.58178072176864 130.4033857857683 35.93522243397542
    vertex 63.30156713988044 125.0844109270577 35.93522243397542
    vertex 70.99376165393709 116.78396532332876 35.93522243397542
  endloop
endfacet
facet normal -0.0 -0.0 1.0
  outer loop
    vertex 75.58178072176864 130.4033857857683 35.93522243397542
    vertex 70.99376165393709 116.78396532332876 35.93522243397542
    vertex 76.75222357382043 107.04192395717764 35.93522243397542
  endloop
endfacet
facet normal -0.0 -0.0 1.0
  outer loop
    vertex 75.58178072176864 130.4033857857683 35.93522243397542
    vertex 76.75222357382043 107.04192395717764 35.93522243397542
    vertex 85.03687190904083 116.99621889023557 35.93522243397542
  endloop
endfacet
facet normal -0.0 -0.0 1.0
  outer loop
    vertex 85.03687190904083 116.99621889023557 35.93522243397542
    vertex 76.75222357382043 107.04192395717764 35.93522243397542
    vertex 80.31537184007259 96.3008240090694 35.93522243397542
  endloop
endfacet
facet normal -0.0 -0.0 1.0
  outer loop
    vertex 85.03687190904083 116.99621889023557 35.93522243397542
    vertex 80.31537184007259 96.3008240090694 35.93522243397542
    vertex 80.40046621323397 95.5068599813644 35.93522243397542
  endloop
endfacet
facet normal -0.0 -0.0 1.0
  outer loop
    vertex 85.03687190904083 116.99621889023557 35.93522243397542
    vertex 80.40046621323397 95.5068599813644 35.93522243397542
    vertex 81.5213486317234 85.04858540332762 35.93522243397542
  endloop
endfacet
facet normal 0.21774258506548846 0.9760062328945438 -0.0
  outer loop
    vertex 32.475011247633006 152.03999955093917 35.93522243397542
    vertex 48.487192147263464 148.46775426795386 0.0
    vertex 32.475011247633006 152.03999955093917 0.0
  endloop
endfacet
facet normal 0.21774258506548846 0.9760062328945438 -0.0
  outer loop
    vertex 48.487192147263464 148.46775426795386 0.0
    vertex 32.475011247633006 152.03999955093917 35.93522243397542
    vertex 48.487192147263464 148.46775426795386 35.93522243397542
  endloop
endfacet
facet normal 0.4485935377883583 0.8937358881988151 -0.0
  outer loop
    vertex 48.487192147263464 148.46775426795386 35.93522243397542
    vertex 63.1496607217624 141.10821020421375 0.0
    vertex 48.487192147263464 148.46775426795386 0.0
  endloop
endfacet
facet normal 0.4485935377883583 0.8937358881988151 -0.0
  outer loop
    vertex 63.1496607217624 141.10821020421375 0.0
    vertex 48.487192147263464 148.46775426795386 35.93522243397542
    vertex 63.1496607217624 141.10821020421375 35.93522243397542
  endloop
endfacet
facet normal 0.652501706040905 0.7577872548504022 -0.0
  outer loop
    vertex 63.1496607217624 141.10821020421375 35.93522243397542
    vertex 75.58178072176864 130.4033857857683 0.0
    vertex 63.1496607217624 141.10821020421375 0.0
  endloop
endfacet
facet normal 0.652501706040905 0.7577872548504022 -0.0
  outer loop
    vertex 75.58178072176864 130.4033857857683 0.0
    vertex 63.1496607217624 141.10821020421375 35.93522243397542
    vertex 75.58178072176864 130.4033857857683 35.93522243397542
  endloop
endfacet
facet normal 0.8172202486045694 0.5763254855293888 -0.0
  outer loop
    vertex 75.58178072176864 130.4033857857683 0.0
    vertex 85.03687190904083 116.99621889023557 35.93522243397542
    vertex 85.03687190904083 116.99621889023557 0.0
  endloop
endfacet
facet normal 0.8172202486045694 0.5763254855293888 -0.0
  outer loop
    vertex 85.03687190904083 116.99621889023557 35.93522243397542
    vertex 75.58178072176864 130.4033857857683 0.0
    vertex 75.58178072176864 130.4033857857683 35.93522243397542
  endloop
endfacet
facet normal 0.9328560755957152 0.36024927789540623 -0.0
  outer loop
    vertex 85.03687190904083 116.99621889023557 0.0
    vertex 90.94705609865937 101.69195163011872 35.93522243397542
    vertex 90.94705609865937 101.69195163011872 0.0
  endloop
endfacet
facet normal 0.9328560755957152 0.36024927789540623 -0.0
  outer loop
    vertex 90.94705609865937 101.69195163011872 35.93522243397542
    vertex 85.03687190904083 116.99621889023557 0.0
    vertex 85.03687190904083 116.99621889023557 35.93522243397542
  endloop
endfacet
facet normal 0.992464033102786 0.12253629257225182 1.2430585747701858e-18
  outer loop
    vertex 92.45793140670956 89.45484725666337 0.0
    vertex 92.957364247633 85.40976705093918 35.93522243397542
    vertex 92.957364247633 85.40976705093918 0.0
  endloop
endfacet
facet normal 0.992464033102786 0.12253629257225182 1.2430585747701858e-18
  outer loop
    vertex 92.957364247633 85.40976705093918 35.93522243397542
    vertex 92.45793140670956 89.45484725666337 0.0
    vertex 92.45793140670956 89.45484725666337 35.93522243397542
  endloop
endfacet
facet normal 0.992464033102786 0.12253629257225182 1.2430585747701858e-18
  outer loop
    vertex 92.45793140670956 89.45484725666337 35.93522243397542
    vertex 92.45793140670956 89.45484725666337 0.0
    vertex 92.45793140670956 89.45484725666337 29.252519599999996
  endloop
endfacet
facet normal 0.9924640331027857 -0.12253629257225239 -5.088361641121903e-19
  outer loop
    vertex 91.58442119819043 74.28982399189191 0.0
    vertex 90.94705609865937 69.12758247175967 35.93522243397542
    vertex 90.94705609865937 69.12758247175967 0.0
  endloop
endfacet
facet normal 0.9924640331027857 -0.12253629257225239 -5.088361641121903e-19
  outer loop
    vertex 90.94705609865937 69.12758247175967 35.93522243397542
    vertex 91.58442119819043 74.28982399189191 0.0
    vertex 91.58442119819043 74.28982399189191 35.93522243397542
  endloop
endfacet
facet normal 0.9924640331027857 -0.12253629257225239 -5.088361641121903e-19
  outer loop
    vertex 91.58442119819043 74.28982399189191 35.93522243397542
    vertex 91.58442119819043 74.28982399189191 0.0
    vertex 91.58442119819043 74.28982399189191 29.252519599999996
  endloop
endfacet
facet normal 0.9328560755957154 -0.36024927789540534 -0.0
  outer loop
    vertex 90.94705609865937 69.12758247175967 0.0
    vertex 85.03687190904084 53.82331521164281 35.93522243397542
    vertex 85.03687190904084 53.82331521164281 0.0
  endloop
endfacet
facet normal 0.9328560755957154 -0.36024927789540534 -0.0
  outer loop
    vertex 85.03687190904084 53.82331521164281 35.93522243397542
    vertex 90.94705609865937 69.12758247175967 0.0
    vertex 90.94705609865937 69.12758247175967 35.93522243397542
  endloop
endfacet
facet normal 0.81722024860457 -0.576325485529388 -0.0
  outer loop
    vertex 85.03687190904084 53.82331521164281 0.0
    vertex 75.58178072176867 40.416148316110075 35.93522243397542
    vertex 75.58178072176867 40.416148316110075 0.0
  endloop
endfacet
facet normal 0.81722024860457 -0.576325485529388 -0.0
  outer loop
    vertex 75.58178072176867 40.416148316110075 35.93522243397542
    vertex 85.03687190904084 53.82331521164281 0.0
    vertex 85.03687190904084 53.82331521164281 35.93522243397542
  endloop
endfacet
facet normal 0.6525017060409053 -0.757787254850402 -6.0478906938511875e-18
  outer loop
    vertex 73.61688632459544 38.72425268426964 29.252519599999996
    vertex 63.14966072176244 29.71132389766462 0.0
    vertex 73.61688632459544 38.72425268426964 0.0
  endloop
endfacet
facet normal 0.6525017060409053 -0.757787254850402 -6.0478906938511875e-18
  outer loop
    vertex 63.14966072176244 29.71132389766462 0.0
    vertex 73.61688632459544 38.72425268426964 29.252519599999996
    vertex 63.14966072176244 29.71132389766462 35.93522243397542
  endloop
endfacet
facet normal 0.6525017060409053 -0.757787254850402 -6.0478906938511875e-18
  outer loop
    vertex 63.14966072176244 29.71132389766462 35.93522243397542
    vertex 73.61688632459544 38.72425268426964 29.252519599999996
    vertex 73.61688632459544 38.72425268426964 35.93522243397542
  endloop
endfacet
facet normal 0.4485935377883579 -0.8937358881988153 -3.976405083621336e-18
  outer loop
    vertex 62.506261740505046 29.38838215500578 29.252519599999996
    vertex 48.48719214726352 22.35177983392451 0.0
    vertex 62.506261740505046 29.38838215500578 0.0
  endloop
endfacet
facet normal 0.4485935377883579 -0.8937358881988153 -3.976405083621336e-18
  outer loop
    vertex 48.48719214726352 22.35177983392451 0.0
    vertex 62.506261740505046 29.38838215500578 29.252519599999996
    vertex 48.48719214726352 22.35177983392451 35.93522243397542
  endloop
endfacet
facet normal 0.4485935377883579 -0.8937358881988153 -3.976405083621336e-18
  outer loop
    vertex 48.48719214726352 22.35177983392451 35.93522243397542
    vertex 62.506261740505046 29.38838215500578 29.252519599999996
    vertex 62.506261740505046 29.38838215500578 35.93522243397542
  endloop
endfacet
facet normal 0.2177425850654897 -0.9760062328945437 0.0
  outer loop
    vertex 48.48719214726352 22.35177983392451 35.93522243397542
    vertex 32.475011247633006 18.779534550939186 0.0
    vertex 48.48719214726352 22.35177983392451 0.0
  endloop
endfacet
facet normal 0.2177425850654897 -0.9760062328945437 0.0
  outer loop
    vertex 32.475011247633006 18.779534550939186 0.0
    vertex 48.48719214726352 22.35177983392451 35.93522243397542
    vertex 32.475011247633006 18.779534550939186 35.93522243397542
  endloop
endfacet
facet normal -1.0 0.0 0.0
  outer loop
    vertex 32.475011247633006 152.03999955093917 35.93522243397542
    vertex 32.475011247633006 18.779534550939186 0.0
    vertex 32.475011247633006 18.779534550939186 35.93522243397542
  endloop
endfacet
facet normal -1.0 0.0 0.0
  outer loop
    vertex 32.475011247633006 18.779534550939186 0.0
    vertex 32.475011247633006 152.03999955093917 35.93522243397542
    vertex 32.475011247633006 152.03999955093917 0.0
  endloop
endfacet
facet normal 0.0 0.0 -1.0
  outer loop
    vertex 62.506261740505046 100.0237507955466 0.0
    vertex 73.61688632459544 83.91867124793508 0.0
    vertex 62.506261740505046 44.457053963804796 0.0
  endloop
endfacet
facet normal 0.0 0.0 -1.0
  outer loop
    vertex 73.61688632459544 83.91867124793508 0.0
    vertex 62.506261740505046 100.0237507955466 0.0
    vertex 78.5184426401355 96.45150551256133 0.0
  endloop
endfacet
facet normal 0.0 0.0 -1.0
  outer loop
    vertex 62.506261740505046 44.457053963804796 0.0
    vertex 73.61688632459544 83.91867124793508 0.0
    vertex 62.506261740505046 29.38838215500578 0.0
  endloop
endfacet
facet normal 0.0 0.0 -1.0
  outer loop
    vertex 62.506261740505046 29.38838215500578 0.0
    vertex 73.61688632459544 83.91867124793508 0.0
    vertex 62.506261740505046 -33.236714204453364 0.0
  endloop
endfacet
facet normal 0.0 0.0 -1.0
  outer loop
    vertex 73.61688632459544 83.91867124793508 0.0
    vertex 78.5184426401355 96.45150551256133 0.0
    vertex 81.06613832231201 80.80129386940106 0.0
  endloop
endfacet
facet normal 0.0 0.0 -1.0
  outer loop
    vertex 81.06613832231201 80.80129386940106 0.0
    vertex 78.5184426401355 96.45150551256133 0.0
    vertex 80.40046621323397 95.5068599813644 0.0
  endloop
endfacet
facet normal 0.0 0.0 -1.0
  outer loop
    vertex 81.06613832231201 80.80129386940106 0.0
    vertex 80.40046621323397 95.5068599813644 0.0
    vertex 92.45793140670956 89.45484725666337 0.0
  endloop
endfacet
facet normal 0.0 0.0 -1.0
  outer loop
    vertex 81.06613832231201 80.80129386940106 0.0
    vertex 92.45793140670956 89.45484725666337 0.0
    vertex 84.05631236989342 79.54996005270819 0.0
  endloop
endfacet
facet normal 0.0 0.0 -1.0
  outer loop
    vertex 84.05631236989342 79.54996005270819 0.0
    vertex 92.45793140670956 89.45484725666337 0.0
    vertex 91.58442119819043 74.28982399189191 0.0
  endloop
endfacet
facet normal 0.0 0.0 -1.0
  outer loop
    vertex 91.58442119819043 74.28982399189191 0.0
    vertex 92.45793140670956 89.45484725666337 0.0
    vertex 93.33281763275248 73.06816217166515 0.0
  endloop
endfacet
facet normal 0.0 0.0 -1.0
  outer loop
    vertex 93.33281763275248 73.06816217166515 0.0
    vertex 92.45793140670956 89.45484725666337 0.0
    vertex 93.18091121463445 89.09196144882118 0.0
  endloop
endfacet
facet normal 0.0 0.0 -1.0
  outer loop
    vertex 93.33281763275248 73.06816217166515 0.0
    vertex 93.18091121463445 89.09196144882118 0.0
    vertex 105.61303121464069 78.38713703037574 0.0
  endloop
endfacet
facet normal 0.0 0.0 -1.0
  outer loop
    vertex 93.33281763275248 73.06816217166515 0.0
    vertex 105.61303121464069 78.38713703037574 0.0
    vertex 101.02501214680913 64.7677165679362 0.0
  endloop
endfacet
facet normal 0.0 0.0 -1.0
  outer loop
    vertex 101.02501214680913 64.7677165679362 0.0
    vertex 105.61303121464069 78.38713703037574 0.0
    vertex 106.78347406669248 55.02567520178509 0.0
  endloop
endfacet
facet normal 0.0 0.0 -1.0
  outer loop
    vertex 106.78347406669248 55.02567520178509 0.0
    vertex 105.61303121464069 78.38713703037574 0.0
    vertex 115.06812240191289 64.97997013484301 0.0
  endloop
endfacet
facet normal 0.0 0.0 -1.0
  outer loop
    vertex 106.78347406669248 55.02567520178509 0.0
    vertex 115.06812240191289 64.97997013484301 0.0
    vertex 110.34662233294465 44.28457525367685 0.0
  endloop
endfacet
facet normal 0.0 0.0 -1.0
  outer loop
    vertex 110.34662233294465 44.28457525367685 0.0
    vertex 115.06812240191289 64.97997013484301 0.0
    vertex 111.55259912459546 33.032336647935075 0.0
  endloop
endfacet
facet normal 0.0 0.0 -1.0
  outer loop
    vertex 62.506261740505046 -33.236714204453364 0.0
    vertex 73.61688632459544 -17.85399795206491 0.0
    vertex 78.51844264013556 -29.664468921468043 0.0
  endloop
endfacet
facet normal 0.0 0.0 -1.0
  outer loop
    vertex 73.61688632459544 -17.85399795206491 0.0
    vertex 62.506261740505046 -33.236714204453364 0.0
    vertex 73.61688632459544 83.91867124793508 0.0
  endloop
endfacet
facet normal 0.0 0.0 -1.0
  outer loop
    vertex 73.61688632459544 -17.85399795206491 0.0
    vertex 73.61688632459544 83.91867124793508 0.0
    vertex 73.61688632459544 57.75095108374251 0.0
  endloop
endfacet
facet normal 0.0 0.0 -1.0
  outer loop
    vertex 73.61688632459544 -17.85399795206491 0.0
    vertex 73.61688632459544 57.75095108374251 0.0
    vertex 73.61688632459544 38.72425268426964 0.0
  endloop
endfacet
facet normal 0.0 0.0 -1.0
  outer loop
    vertex 78.51844264013556 -29.664468921468043 0.0
    vertex 73.61688632459544 -17.85399795206491 0.0
    vertex 84.0563123698934 -13.485286756838022 0.0
  endloop
endfacet
facet normal 0.0 0.0 -1.0
  outer loop
    vertex 78.51844264013556 -29.664468921468043 0.0
    vertex 84.0563123698934 -13.485286756838022 0.0
    vertex 93.18091121463448 -22.30492485772793 0.0
  endloop
endfacet
facet normal 0.0 0.0 -1.0
  outer loop
    vertex 93.18091121463448 -22.30492485772793 0.0
    vertex 84.0563123698934 -13.485286756838022 0.0
    vertex 93.33281763275248 -7.003488875794994 0.0
  endloop
endfacet
facet normal 0.0 0.0 -1.0
  outer loop
    vertex 93.18091121463448 -22.30492485772793 0.0
    vertex 93.33281763275248 -7.003488875794994 0.0
    vertex 105.6130312146407 -11.600100439282478 0.0
  endloop
endfacet
facet normal 0.0 0.0 -1.0
  outer loop
    vertex 105.6130312146407 -11.600100439282478 0.0
    vertex 93.33281763275248 -7.003488875794994 0.0
    vertex 101.02501214680912 1.296956727933967 0.0
  endloop
endfacet
facet normal 0.0 0.0 -1.0
  outer loop
    vertex 105.6130312146407 -11.600100439282478 0.0
    vertex 101.02501214680912 1.296956727933967 0.0
    vertex 106.78347406669248 11.038998094085075 0.0
  endloop
endfacet
facet normal 0.0 0.0 -1.0
  outer loop
    vertex 105.6130312146407 -11.600100439282478 0.0
    vertex 106.78347406669248 11.038998094085075 0.0
    vertex 115.06812240191289 1.8070664562502567 0.0
  endloop
endfacet
facet normal 0.0 0.0 -1.0
  outer loop
    vertex 115.06812240191289 1.8070664562502567 0.0
    vertex 106.78347406669248 11.038998094085075 0.0
    vertex 110.34662233294462 21.780098042193302 0.0
  endloop
endfacet
facet normal 0.0 0.0 -1.0
  outer loop
    vertex 115.06812240191289 1.8070664562502567 0.0
    vertex 110.34662233294462 21.780098042193302 0.0
    vertex 111.55259912459546 33.032336647935075 0.0
  endloop
endfacet
facet normal 0.0 0.0 -1.0
  outer loop
    vertex 115.06812240191289 1.8070664562502567 0.0
    vertex 111.55259912459546 33.032336647935075 0.0
    vertex 115.06812240191289 64.97997013484301 0.0
  endloop
endfacet
facet normal 0.0 0.0 -1.0
  outer loop
    vertex 115.06812240191289 1.8070664562502567 0.0
    vertex 115.06812240191289 64.97997013484301 0.0
    vertex 120.97830659153142 49.67570287472617 0.0
  endloop
endfacet
facet normal 0.0 0.0 -1.0
  outer loop
    vertex 115.06812240191289 1.8070664562502567 0.0
    vertex 120.97830659153142 49.67570287472617 0.0
    vertex 120.97830659153142 17.111333716367106 0.0
  endloop
endfacet
facet normal 0.0 0.0 -1.0
  outer loop
    vertex 120.97830659153142 17.111333716367106 0.0
    vertex 120.97830659153142 49.67570287472617 0.0
    vertex 122.98861474050503 33.393518295546635 0.0
  endloop
endfacet
facet normal 0.0 0.0 -1.0
  outer loop
    vertex 32.475011247633006 152.03999955093917 0.0
    vertex 43.5856358317234 135.93492000332765 0.0
    vertex 32.475011247633006 18.779534550939186 0.0
  endloop
endfacet
facet normal 0.0 0.0 -1.0
  outer loop
    vertex 43.5856358317234 135.93492000332765 0.0
    vertex 32.475011247633006 152.03999955093917 0.0
    vertex 48.487192147263464 148.46775426795386 0.0
  endloop
endfacet
facet normal 0.0 0.0 -1.0
  outer loop
    vertex 43.5856358317234 135.93492000332765 0.0
    vertex 48.487192147263464 148.46775426795386 0.0
    vertex 54.02506187702137 131.56620880810073 0.0
  endloop
endfacet
facet normal 0.0 0.0 -1.0
  outer loop
    vertex 54.02506187702137 131.56620880810073 0.0
    vertex 48.487192147263464 148.46775426795386 0.0
    vertex 63.1496607217624 141.10821020421375 0.0
  endloop
endfacet
facet normal 0.0 0.0 -1.0
  outer loop
    vertex 54.02506187702137 131.56620880810073 0.0
    vertex 63.1496607217624 141.10821020421375 0.0
    vertex 63.30156713988044 125.0844109270577 0.0
  endloop
endfacet
facet normal 0.0 0.0 -1.0
  outer loop
    vertex 63.30156713988044 125.0844109270577 0.0
    vertex 63.1496607217624 141.10821020421375 0.0
    vertex 75.58178072176864 130.4033857857683 0.0
  endloop
endfacet
facet normal 0.0 0.0 -1.0
  outer loop
    vertex 63.30156713988044 125.0844109270577 0.0
    vertex 75.58178072176864 130.4033857857683 0.0
    vertex 70.99376165393709 116.78396532332876 0.0
  endloop
endfacet
facet normal 0.0 0.0 -1.0
  outer loop
    vertex 70.99376165393709 116.78396532332876 0.0
    vertex 75.58178072176864 130.4033857857683 0.0
    vertex 76.75222357382043 107.04192395717764 0.0
  endloop
endfacet
facet normal 0.0 0.0 -1.0
  outer loop
    vertex 76.75222357382043 107.04192395717764 0.0
    vertex 75.58178072176864 130.4033857857683 0.0
    vertex 85.03687190904083 116.99621889023557 0.0
  endloop
endfacet
facet normal 0.0 0.0 -1.0
  outer loop
    vertex 76.75222357382043 107.04192395717764 0.0
    vertex 85.03687190904083 116.99621889023557 0.0
    vertex 80.31537184007259 96.3008240090694 0.0
  endloop
endfacet
facet normal 0.0 0.0 -1.0
  outer loop
    vertex 80.31537184007259 96.3008240090694 0.0
    vertex 85.03687190904083 116.99621889023557 0.0
    vertex 80.40046621323397 95.5068599813644 0.0
  endloop
endfacet
facet normal 0.0 0.0 -1.0
  outer loop
    vertex 80.40046621323397 95.5068599813644 0.0
    vertex 85.03687190904083 116.99621889023557 0.0
    vertex 92.45793140670956 89.45484725666337 0.0
  endloop
endfacet
facet normal 0.0 0.0 -1.0
  outer loop
    vertex 92.45793140670956 89.45484725666337 0.0
    vertex 85.03687190904083 116.99621889023557 0.0
    vertex 90.94705609865937 101.69195163011872 0.0
  endloop
endfacet
facet normal 0.0 0.0 -1.0
  outer loop
    vertex 32.475011247633006 18.779534550939186 0.0
    vertex 43.5856358317234 34.162250803327645 0.0
    vertex 48.48719214726352 22.35177983392451 0.0
  endloop
endfacet
facet normal 0.0 0.0 -1.0
  outer loop
    vertex 43.5856358317234 34.162250803327645 0.0
    vertex 32.475011247633006 18.779534550939186 0.0
    vertex 43.5856358317234 135.93492000332765 0.0
  endloop
endfacet
facet normal 0.0 0.0 -1.0
  outer loop
    vertex 48.48719214726352 22.35177983392451 0.0
    vertex 43.5856358317234 34.162250803327645 0.0
    vertex 54.02506187702136 38.53096199855453 0.0
  endloop
endfacet
facet normal 0.0 0.0 -1.0
  outer loop
    vertex 48.48719214726352 22.35177983392451 0.0
    vertex 54.02506187702136 38.53096199855453 0.0
    vertex 62.506261740505046 29.38838215500578 0.0
  endloop
endfacet
facet normal 0.0 0.0 -1.0
  outer loop
    vertex 62.506261740505046 29.38838215500578 0.0
    vertex 54.02506187702136 38.53096199855453 0.0
    vertex 62.506261740505046 44.457053963804796 0.0
  endloop
endfacet
facet normal 0.0 0.0 -1.0
  outer loop
    vertex 92.45793140670956 89.45484725666337 0.0
    vertex 81.5213486317234 85.04858540332762 0.0
    vertex 80.40046621323397 95.5068599813644 0.0
  endloop
endfacet
facet normal 0.0 0.0 -1.0
  outer loop
    vertex 81.5213486317234 85.04858540332762 0.0
    vertex 92.45793140670956 89.45484725666337 0.0
    vertex 84.05631236989342 79.54996005270819 0.0
  endloop
endfacet
facet normal 0.0 0.0 -1.0
  outer loop
    vertex 84.05631236989342 79.54996005270819 0.0
    vertex 92.45793140670956 89.45484725666337 0.0
    vertex 91.58442119819043 74.28982399189191 0.0
  endloop
endfacet
facet normal 0.0 0.0 -1.0
  outer loop
    vertex 91.58442119819043 74.28982399189191 0.0
    vertex 92.45793140670956 89.45484725666337 0.0
    vertex 92.957364247633 85.40976705093918 0.0
  endloop
endfacet
facet normal 0.0 0.0 -1.0
  outer loop
    vertex 84.05631236989342 79.54996005270819 0.0
    vertex 81.06613832231201 80.80129386940106 0.0
    vertex 81.5213486317234 85.04858540332762 0.0
  endloop
endfacet
facet normal 0.0 0.0 -1.0
  outer loop
    vertex 76.75222357382043 63.055246849477626 0.0
    vertex 73.61688632459544 38.72425268426964 0.0
    vertex 73.61688632459544 57.75095108374251 0.0
  endloop
endfacet
facet normal 0.0 0.0 -1.0
  outer loop
    vertex 73.61688632459544 38.72425268426964 0.0
    vertex 76.75222357382043 63.055246849477626 0.0
    vertex 75.58178072176867 40.416148316110075 0.0
  endloop
endfacet
facet normal 0.0 0.0 -1.0
  outer loop
    vertex 75.58178072176867 40.416148316110075 0.0
    vertex 76.75222357382043 63.055246849477626 0.0
    vertex 85.03687190904084 53.82331521164281 0.0
  endloop
endfacet
facet normal 0.0 0.0 -1.0
  outer loop
    vertex 85.03687190904084 53.82331521164281 0.0
    vertex 76.75222357382043 63.055246849477626 0.0
    vertex 80.31537184007257 73.79634679758585 0.0
  endloop
endfacet
facet normal 0.0 0.0 -1.0
  outer loop
    vertex 85.03687190904084 53.82331521164281 0.0
    vertex 80.31537184007257 73.79634679758585 0.0
    vertex 81.06613832231201 80.80129386940106 0.0
  endloop
endfacet
facet normal 0.0 0.0 -1.0
  outer loop
    vertex 85.03687190904084 53.82331521164281 0.0
    vertex 81.06613832231201 80.80129386940106 0.0
    vertex 84.05631236989342 79.54996005270819 0.0
  endloop
endfacet
facet normal 0.0 0.0 -1.0
  outer loop
    vertex 85.03687190904084 53.82331521164281 0.0
    vertex 84.05631236989342 79.54996005270819 0.0
    vertex 91.58442119819043 74.28982399189191 0.0
  endloop
endfacet
facet normal 0.0 0.0 -1.0
  outer loop
    vertex 85.03687190904084 53.82331521164281 0.0
    vertex 91.58442119819043 74.28982399189191 0.0
    vertex 90.94705609865937 69.12758247175967 0.0
  endloop
endfacet
facet normal 1.0 -0.0 -0.0
  outer loop
    vertex 43.5856358317234 135.93492000332765 0.0
    vertex 43.5856358317234 34.162250803327645 35.93522243397542
    vertex 43.5856358317234 34.162250803327645 0.0
  endloop
endfacet
facet normal 1.0 -0.0 -0.0
  outer loop
    vertex 43.5856358317234 34.162250803327645 35.93522243397542
    vertex 43.5856358317234 135.93492000332765 0.0
    vertex 43.5856358317234 135.93492000332765 35.93522243397542
  endloop
endfacet
facet normal -0.9943055983635575 0.10656630359962829 -3.7653519591109824e-19
  outer loop
    vertex 81.5213486317234 85.04858540332762 35.93522243397542
    vertex 81.06613832231201 80.80129386940106 29.252519599999996
    vertex 81.06613832231201 80.80129386940106 35.93522243397542
  endloop
endfacet
facet normal -0.9943055983635575 0.10656630359962829 -3.7653519591109824e-19
  outer loop
    vertex 81.06613832231201 80.80129386940106 29.252519599999996
    vertex 81.5213486317234 85.04858540332762 35.93522243397542
    vertex 81.06613832231201 80.80129386940106 0.0
  endloop
endfacet
facet normal -0.9943055983635575 0.10656630359962829 -3.7653519591109824e-19
  outer loop
    vertex 81.06613832231201 80.80129386940106 0.0
    vertex 81.5213486317234 85.04858540332762 35.93522243397542
    vertex 81.5213486317234 85.04858540332762 0.0
  endloop
endfacet
facet normal -0.5727649533927773 0.8197196521768706 -0.0
  outer loop
    vertex 62.506261740505046 44.457053963804796 29.252519599999996
    vertex 63.30156713988044 45.01275987959756 0.0
    vertex 62.506261740505046 44.457053963804796 0.0
  endloop
endfacet
facet normal -0.5727649533927773 0.8197196521768706 -0.0
  outer loop
    vertex 63.30156713988044 45.01275987959756 0.0
    vertex 62.506261740505046 44.457053963804796 29.252519599999996
    vertex 63.30156713988044 45.01275987959756 35.93522243397542
  endloop
endfacet
facet normal -0.5727649533927773 0.8197196521768706 -0.0
  outer loop
    vertex 63.30156713988044 45.01275987959756 35.93522243397542
    vertex 62.506261740505046 44.457053963804796 29.252519599999996
    vertex 62.506261740505046 44.457053963804796 35.93522243397542
  endloop
endfacet
facet normal -0.8608568134087168 0.5088472725757601 0.0
  outer loop
    vertex 76.75222357382043 63.055246849477626 35.93522243397542
    vertex 73.61688632459544 57.75095108374251 29.252519599999996
    vertex 73.61688632459544 57.75095108374251 35.93522243397542
  endloop
endfacet
facet normal -0.8608568134087168 0.5088472725757601 0.0
  outer loop
    vertex 73.61688632459544 57.75095108374251 29.252519599999996
    vertex 76.75222357382043 63.055246849477626 35.93522243397542
    vertex 73.61688632459544 57.75095108374251 0.0
  endloop
endfacet
facet normal -0.8608568134087168 0.5088472725757601 0.0
  outer loop
    vertex 73.61688632459544 57.75095108374251 0.0
    vertex 76.75222357382043 63.055246849477626 35.93522243397542
    vertex 76.75222357382043 63.055246849477626 0.0
  endloop
endfacet
facet normal -0.0 -0.0 1.0
  outer loop
    vertex 62.506261740505046 -33.236714204453364 29.252519599999996
    vertex 73.61688632459544 -17.85399795206491 29.252519599999996
    vertex 62.506261740505046 29.38838215500578 29.252519599999996
  endloop
endfacet
facet normal -0.0 -0.0 1.0
  outer loop
    vertex 73.61688632459544 -17.85399795206491 29.252519599999996
    vertex 62.506261740505046 -33.236714204453364 29.252519599999996
    vertex 78.51844264013556 -29.664468921468043 29.252519599999996
  endloop
endfacet
facet normal -0.0 -0.0 1.0
  outer loop
    vertex 62.506261740505046 29.38838215500578 29.252519599999996
    vertex 73.61688632459544 -17.85399795206491 29.252519599999996
    vertex 62.506261740505046 44.457053963804796 29.252519599999996
  endloop
endfacet
facet normal -0.0 -0.0 1.0
  outer loop
    vertex 62.506261740505046 44.457053963804796 29.252519599999996
    vertex 73.61688632459544 -17.85399795206491 29.252519599999996
    vertex 62.506261740505046 100.0237507955466 29.252519599999996
  endloop
endfacet
facet normal -0.0 -0.0 1.0
  outer loop
    vertex 73.61688632459544 -17.85399795206491 29.252519599999996
    vertex 78.51844264013556 -29.664468921468043 29.252519599999996
    vertex 84.0563123698934 -13.485286756838022 29.252519599999996
  endloop
endfacet
facet normal -0.0 -0.0 1.0
  outer loop
    vertex 84.0563123698934 -13.485286756838022 29.252519599999996
    vertex 78.51844264013556 -29.664468921468043 29.252519599999996
    vertex 93.18091121463448 -22.30492485772793 29.252519599999996
  endloop
endfacet
facet normal -0.0 -0.0 1.0
  outer loop
    vertex 84.0563123698934 -13.485286756838022 29.252519599999996
    vertex 93.18091121463448 -22.30492485772793 29.252519599999996
    vertex 93.33281763275248 -7.003488875794994 29.252519599999996
  endloop
endfacet
facet normal -0.0 -0.0 1.0
  outer loop
    vertex 93.33281763275248 -7.003488875794994 29.252519599999996
    vertex 93.18091121463448 -22.30492485772793 29.252519599999996
    vertex 105.6130312146407 -11.600100439282478 29.252519599999996
  endloop
endfacet
facet normal -0.0 -0.0 1.0
  outer loop
    vertex 93.33281763275248 -7.003488875794994 29.252519599999996
    vertex 105.6130312146407 -11.600100439282478 29.252519599999996
    vertex 101.02501214680912 1.296956727933967 29.252519599999996
  endloop
endfacet
facet normal -0.0 -0.0 1.0
  outer loop
    vertex 101.02501214680912 1.296956727933967 29.252519599999996
    vertex 105.6130312146407 -11.600100439282478 29.252519599999996
    vertex 106.78347406669248 11.038998094085075 29.252519599999996
  endloop
endfacet
facet normal -0.0 -0.0 1.0
  outer loop
    vertex 106.78347406669248 11.038998094085075 29.252519599999996
    vertex 105.6130312146407 -11.600100439282478 29.252519599999996
    vertex 115.06812240191289 1.8070664562502567 29.252519599999996
  endloop
endfacet
facet normal -0.0 -0.0 1.0
  outer loop
    vertex 106.78347406669248 11.038998094085075 29.252519599999996
    vertex 115.06812240191289 1.8070664562502567 29.252519599999996
    vertex 110.34662233294462 21.780098042193302 29.252519599999996
  endloop
endfacet
facet normal -0.0 -0.0 1.0
  outer loop
    vertex 110.34662233294462 21.780098042193302 29.252519599999996
    vertex 115.06812240191289 1.8070664562502567 29.252519599999996
    vertex 111.55259912459546 33.032336647935075 29.252519599999996
  endloop
endfacet
facet normal -0.0 -0.0 1.0
  outer loop
    vertex 62.506261740505046 100.0237507955466 29.252519599999996
    vertex 73.61688632459544 83.91867124793508 29.252519599999996
    vertex 78.5184426401355 96.45150551256133 29.252519599999996
  endloop
endfacet
facet normal -0.0 -0.0 1.0
  outer loop
    vertex 73.61688632459544 83.91867124793508 29.252519599999996
    vertex 62.506261740505046 100.0237507955466 29.252519599999996
    vertex 73.61688632459544 -17.85399795206491 29.252519599999996
  endloop
endfacet
facet normal -0.0 -0.0 1.0
  outer loop
    vertex 73.61688632459544 83.91867124793508 29.252519599999996
    vertex 73.61688632459544 -17.85399795206491 29.252519599999996
    vertex 73.61688632459544 38.72425268426964 29.252519599999996
  endloop
endfacet
facet normal -0.0 -0.0 1.0
  outer loop
    vertex 73.61688632459544 83.91867124793508 29.252519599999996
    vertex 73.61688632459544 38.72425268426964 29.252519599999996
    vertex 73.61688632459544 57.75095108374251 29.252519599999996
  endloop
endfacet
facet normal -0.0 -0.0 1.0
  outer loop
    vertex 78.5184426401355 96.45150551256133 29.252519599999996
    vertex 73.61688632459544 83.91867124793508 29.252519599999996
    vertex 81.06613832231201 80.80129386940106 29.252519599999996
  endloop
endfacet
facet normal -0.0 -0.0 1.0
  outer loop
    vertex 78.5184426401355 96.45150551256133 29.252519599999996
    vertex 81.06613832231201 80.80129386940106 29.252519599999996
    vertex 80.40046621323397 95.5068599813644 29.252519599999996
  endloop
endfacet
facet normal -0.0 -0.0 1.0
  outer loop
    vertex 80.40046621323397 95.5068599813644 29.252519599999996
    vertex 81.06613832231201 80.80129386940106 29.252519599999996
    vertex 92.45793140670956 89.45484725666337 29.252519599999996
  endloop
endfacet
facet normal -0.0 -0.0 1.0
  outer loop
    vertex 92.45793140670956 89.45484725666337 29.252519599999996
    vertex 81.06613832231201 80.80129386940106 29.252519599999996
    vertex 84.05631236989342 79.54996005270819 29.252519599999996
  endloop
endfacet
facet normal -0.0 -0.0 1.0
  outer loop
    vertex 92.45793140670956 89.45484725666337 29.252519599999996
    vertex 84.05631236989342 79.54996005270819 29.252519599999996
    vertex 91.58442119819043 74.28982399189191 29.252519599999996
  endloop
endfacet
facet normal -0.0 -0.0 1.0
  outer loop
    vertex 92.45793140670956 89.45484725666337 29.252519599999996
    vertex 91.58442119819043 74.28982399189191 29.252519599999996
    vertex 93.33281763275248 73.06816217166515 29.252519599999996
  endloop
endfacet
facet normal -0.0 -0.0 1.0
  outer loop
    vertex 92.45793140670956 89.45484725666337 29.252519599999996
    vertex 93.33281763275248 73.06816217166515 29.252519599999996
    vertex 93.18091121463445 89.09196144882118 29.252519599999996
  endloop
endfacet
facet normal -0.0 -0.0 1.0
  outer loop
    vertex 93.18091121463445 89.09196144882118 29.252519599999996
    vertex 93.33281763275248 73.06816217166515 29.252519599999996
    vertex 105.61303121464069 78.38713703037574 29.252519599999996
  endloop
endfacet
facet normal -0.0 -0.0 1.0
  outer loop
    vertex 105.61303121464069 78.38713703037574 29.252519599999996
    vertex 93.33281763275248 73.06816217166515 29.252519599999996
    vertex 101.02501214680913 64.7677165679362 29.252519599999996
  endloop
endfacet
facet normal -0.0 -0.0 1.0
  outer loop
    vertex 105.61303121464069 78.38713703037574 29.252519599999996
    vertex 101.02501214680913 64.7677165679362 29.252519599999996
    vertex 106.78347406669248 55.02567520178509 29.252519599999996
  endloop
endfacet
facet normal -0.0 -0.0 1.0
  outer loop
    vertex 105.61303121464069 78.38713703037574 29.252519599999996
    vertex 106.78347406669248 55.02567520178509 29.252519599999996
    vertex 115.06812240191289 64.97997013484301 29.252519599999996
  endloop
endfacet
facet normal -0.0 -0.0 1.0
  outer loop
    vertex 115.06812240191289 64.97997013484301 29.252519599999996
    vertex 106.78347406669248 55.02567520178509 29.252519599999996
    vertex 110.34662233294465 44.28457525367685 29.252519599999996
  endloop
endfacet
facet normal -0.0 -0.0 1.0
  outer loop
    vertex 115.06812240191289 64.97997013484301 29.252519599999996
    vertex 110.34662233294465 44.28457525367685 29.252519599999996
    vertex 111.55259912459546 33.032336647935075 29.252519599999996
  endloop
endfacet
facet normal -0.0 -0.0 1.0
  outer loop
    vertex 115.06812240191289 64.97997013484301 29.252519599999996
    vertex 111.55259912459546 33.032336647935075 29.252519599999996
    vertex 115.06812240191289 1.8070664562502567 29.252519599999996
  endloop
endfacet
facet normal -0.0 -0.0 1.0
  outer loop
    vertex 115.06812240191289 64.97997013484301 29.252519599999996
    vertex 115.06812240191289 1.8070664562502567 29.252519599999996
    vertex 120.97830659153142 17.111333716367106 29.252519599999996
  endloop
endfacet
facet normal -0.0 -0.0 1.0
  outer loop
    vertex 115.06812240191289 64.97997013484301 29.252519599999996
    vertex 120.97830659153142 17.111333716367106 29.252519599999996
    vertex 120.97830659153142 49.67570287472617 29.252519599999996
  endloop
endfacet
facet normal -0.0 -0.0 1.0
  outer loop
    vertex 120.97830659153142 49.67570287472617 29.252519599999996
    vertex 120.97830659153142 17.111333716367106 29.252519599999996
    vertex 122.98861474050503 33.393518295546635 29.252519599999996
  endloop
endfacet
facet normal 0.21774258506548846 0.9760062328945439 0.0
  outer loop
    vertex 62.506261740505046 100.0237507955466 29.252519599999996
    vertex 78.5184426401355 96.45150551256133 0.0
    vertex 62.506261740505046 100.0237507955466 0.0
  endloop
endfacet
facet normal 0.21774258506548846 0.9760062328945439 0.0
  outer loop
    vertex 78.5184426401355 96.45150551256133 0.0
    vertex 62.506261740505046 100.0237507955466 29.252519599999996
    vertex 78.5184426401355 96.45150551256133 29.252519599999996
  endloop
endfacet
facet normal -1.0 0.0 0.0
  outer loop
    vertex 62.506261740505046 100.0237507955466 29.252519599999996
    vertex 62.506261740505046 44.457053963804796 0.0
    vertex 62.506261740505046 44.457053963804796 29.252519599999996
  endloop
endfacet
facet normal -1.0 0.0 0.0
  outer loop
    vertex 62.506261740505046 44.457053963804796 0.0
    vertex 62.506261740505046 100.0237507955466 29.252519599999996
    vertex 62.506261740505046 100.0237507955466 0.0
  endloop
endfacet
facet normal -1.0 0.0 0.0
  outer loop
    vertex 62.506261740505046 44.457053963804796 29.252519599999996
    vertex 62.506261740505046 29.38838215500578 0.0
    vertex 62.506261740505046 29.38838215500578 29.252519599999996
  endloop
endfacet
facet normal -1.0 0.0 0.0
  outer loop
    vertex 62.506261740505046 29.38838215500578 0.0
    vertex 62.506261740505046 44.457053963804796 29.252519599999996
    vertex 62.506261740505046 44.457053963804796 0.0
  endloop
endfacet
facet normal -1.0 0.0 0.0
  outer loop
    vertex 62.506261740505046 29.38838215500578 29.252519599999996
    vertex 62.506261740505046 -33.236714204453364 0.0
    vertex 62.506261740505046 -33.236714204453364 29.252519599999996
  endloop
endfacet
facet normal -1.0 0.0 0.0
  outer loop
    vertex 62.506261740505046 -33.236714204453364 0.0
    vertex 62.506261740505046 29.38838215500578 29.252519599999996
    vertex 62.506261740505046 29.38838215500578 0.0
  endloop
endfacet
facet normal 0.2177425850654897 -0.9760062328945437 0.0
  outer loop
    vertex 78.51844264013556 -29.664468921468043 29.252519599999996
    vertex 62.506261740505046 -33.236714204453364 0.0
    vertex 78.51844264013556 -29.664468921468043 0.0
  endloop
endfacet
facet normal 0.2177425850654897 -0.9760062328945437 0.0
  outer loop
    vertex 62.506261740505046 -33.236714204453364 0.0
    vertex 78.51844264013556 -29.664468921468043 29.252519599999996
    vertex 62.506261740505046 -33.236714204453364 29.252519599999996
  endloop
endfacet
facet normal 0.4485935377883578 -0.8937358881988154 0.0
  outer loop
    vertex 93.18091121463448 -22.30492485772793 29.252519599999996
    vertex 78.51844264013556 -29.664468921468043 0.0
    vertex 93.18091121463448 -22.30492485772793 0.0
  endloop
endfacet
facet normal 0.4485935377883578 -0.8937358881988154 0.0
  outer loop
    vertex 78.51844264013556 -29.664468921468043 0.0
    vertex 93.18091121463448 -22.30492485772793 29.252519599999996
    vertex 78.51844264013556 -29.664468921468043 29.252519599999996
  endloop
endfacet
facet normal 0.6525017060409057 -0.7577872548504017 0.0
  outer loop
    vertex 105.6130312146407 -11.600100439282478 29.252519599999996
    vertex 93.18091121463448 -22.30492485772793 0.0
    vertex 105.6130312146407 -11.600100439282478 0.0
  endloop
endfacet
facet normal 0.6525017060409057 -0.7577872548504017 0.0
  outer loop
    vertex 93.18091121463448 -22.30492485772793 0.0
    vertex 105.6130312146407 -11.600100439282478 29.252519599999996
    vertex 93.18091121463448 -22.30492485772793 29.252519599999996
  endloop
endfacet
facet normal 0.8172202486045699 -0.5763254855293884 0.0
  outer loop
    vertex 115.06812240191289 1.8070664562502567 0.0
    vertex 105.6130312146407 -11.600100439282478 29.252519599999996
    vertex 105.6130312146407 -11.600100439282478 0.0
  endloop
endfacet
facet normal 0.8172202486045699 -0.5763254855293884 0.0
  outer loop
    vertex 105.6130312146407 -11.600100439282478 29.252519599999996
    vertex 115.06812240191289 1.8070664562502567 0.0
    vertex 115.06812240191289 1.8070664562502567 29.252519599999996
  endloop
endfacet
facet normal 0.9328560755957154 -0.3602492778954054 0.0
  outer loop
    vertex 120.97830659153142 17.111333716367106 0.0
    vertex 115.06812240191289 1.8070664562502567 29.252519599999996
    vertex 115.06812240191289 1.8070664562502567 0.0
  endloop
endfacet
facet normal 0.9328560755957154 -0.3602492778954054 0.0
  outer loop
    vertex 115.06812240191289 1.8070664562502567 29.252519599999996
    vertex 120.97830659153142 17.111333716367106 0.0
    vertex 120.97830659153142 17.111333716367106 29.252519599999996
  endloop
endfacet
facet normal 0.9924640331027859 -0.12253629257225186 0.0
  outer loop
    vertex 122.98861474050503 33.393518295546635 0.0
    vertex 120.97830659153142 17.111333716367106 29.252519599999996
    vertex 120.97830659153142 17.111333716367106 0.0
  endloop
endfacet
facet normal 0.9924640331027859 -0.12253629257225186 0.0
  outer loop
    vertex 120.97830659153142 17.111333716367106 29.252519599999996
    vertex 122.98861474050503 33.393518295546635 0.0
    vertex 122.98861474050503 33.393518295546635 29.252519599999996
  endloop
endfacet
facet normal 0.992464033102786 0.12253629257225179 0.0
  outer loop
    vertex 120.97830659153142 49.67570287472617 0.0
    vertex 122.98861474050503 33.393518295546635 29.252519599999996
    vertex 122.98861474050503 33.393518295546635 0.0
  endloop
endfacet
facet normal 0.992464033102786 0.12253629257225179 0.0
  outer loop
    vertex 122.98861474050503 33.393518295546635 29.252519599999996
    vertex 120.97830659153142 49.67570287472617 0.0
    vertex 120.97830659153142 49.67570287472617 29.252519599999996
  endloop
endfacet
facet normal 0.9328560755957153 0.3602492778954056 0.0
  outer loop
    vertex 115.06812240191289 64.97997013484301 0.0
    vertex 120.97830659153142 49.67570287472617 29.252519599999996
    vertex 120.97830659153142 49.67570287472617 0.0
  endloop
endfacet
facet normal 0.9328560755957153 0.3602492778954056 0.0
  outer loop
    vertex 120.97830659153142 49.67570287472617 29.252519599999996
    vertex 115.06812240191289 64.97997013484301 0.0
    vertex 115.06812240191289 64.97997013484301 29.252519599999996
  endloop
endfacet
facet normal 0.8172202486045692 0.5763254855293893 0.0
  outer loop
    vertex 105.61303121464069 78.38713703037574 0.0
    vertex 115.06812240191289 64.97997013484301 29.252519599999996
    vertex 115.06812240191289 64.97997013484301 0.0
  endloop
endfacet
facet normal 0.8172202486045692 0.5763254855293893 0.0
  outer loop
    vertex 115.06812240191289 64.97997013484301 29.252519599999996
    vertex 105.61303121464069 78.38713703037574 0.0
    vertex 105.61303121464069 78.38713703037574 29.252519599999996
  endloop
endfacet
facet normal 0.652501706040905 0.7577872548504023 0.0
  outer loop
    vertex 93.18091121463445 89.09196144882118 29.252519599999996
    vertex 105.61303121464069 78.38713703037574 0.0
    vertex 93.18091121463445 89.09196144882118 0.0
  endloop
endfacet
facet normal 0.652501706040905 0.7577872548504023 0.0
  outer loop
    vertex 105.61303121464069 78.38713703037574 0.0
    vertex 93.18091121463445 89.09196144882118 29.252519599999996
    vertex 105.61303121464069 78.38713703037574 29.252519599999996
  endloop
endfacet
facet normal 0.4485935377883612 0.8937358881988136 -0.0
  outer loop
    vertex 92.45793140670956 89.45484725666337 29.252519599999996
    vertex 93.18091121463445 89.09196144882118 0.0
    vertex 92.45793140670956 89.45484725666337 0.0
  endloop
endfacet
facet normal 0.4485935377883612 0.8937358881988136 -0.0
  outer loop
    vertex 93.18091121463445 89.09196144882118 0.0
    vertex 92.45793140670956 89.45484725666337 29.252519599999996
    vertex 93.18091121463445 89.09196144882118 29.252519599999996
  endloop
endfacet
facet normal 0.4485935377883584 0.8937358881988151 -0.0
  outer loop
    vertex 80.40046621323397 95.5068599813644 29.252519599999996
    vertex 92.45793140670956 89.45484725666337 0.0
    vertex 80.40046621323397 95.5068599813644 0.0
  endloop
endfacet
facet normal 0.4485935377883584 0.8937358881988151 -0.0
  outer loop
    vertex 92.45793140670956 89.45484725666337 0.0
    vertex 80.40046621323397 95.5068599813644 29.252519599999996
    vertex 92.45793140670956 89.45484725666337 29.252519599999996
  endloop
endfacet
facet normal 0.44859353778835626 0.893735888198816 -0.0
  outer loop
    vertex 78.5184426401355 96.45150551256133 29.252519599999996
    vertex 80.40046621323397 95.5068599813644 0.0
    vertex 78.5184426401355 96.45150551256133 0.0
  endloop
endfacet
facet normal 0.44859353778835626 0.893735888198816 -0.0
  outer loop
    vertex 80.40046621323397 95.5068599813644 0.0
    vertex 78.5184426401355 96.45150551256133 29.252519599999996
    vertex 80.40046621323397 95.5068599813644 29.252519599999996
  endloop
endfacet
facet normal 1.0 -0.0 -0.0
  outer loop
    vertex 73.61688632459544 83.91867124793508 0.0
    vertex 73.61688632459544 57.75095108374251 29.252519599999996
    vertex 73.61688632459544 57.75095108374251 0.0
  endloop
endfacet
facet normal 1.0 -0.0 -0.0
  outer loop
    vertex 73.61688632459544 57.75095108374251 29.252519599999996
    vertex 73.61688632459544 83.91867124793508 0.0
    vertex 73.61688632459544 83.91867124793508 29.252519599999996
  endloop
endfacet
facet normal -0.3860417603330139 -0.9224813056528507 0.0
  outer loop
    vertex 81.06613832231201 80.80129386940106 29.252519599999996
    vertex 73.61688632459544 83.91867124793508 0.0
    vertex 81.06613832231201 80.80129386940106 0.0
  endloop
endfacet
facet normal -0.3860417603330139 -0.9224813056528507 0.0
  outer loop
    vertex 73.61688632459544 83.91867124793508 0.0
    vertex 81.06613832231201 80.80129386940106 29.252519599999996
    vertex 73.61688632459544 83.91867124793508 29.252519599999996
  endloop
endfacet
facet normal -0.3860417603330123 -0.9224813056528512 0.0
  outer loop
    vertex 84.05631236989342 79.54996005270819 29.252519599999996
    vertex 81.06613832231201 80.80129386940106 0.0
    vertex 84.05631236989342 79.54996005270819 0.0
  endloop
endfacet
facet normal -0.3860417603330123 -0.9224813056528512 0.0
  outer loop
    vertex 81.06613832231201 80.80129386940106 0.0
    vertex 84.05631236989342 79.54996005270819 29.252519599999996
    vertex 81.06613832231201 80.80129386940106 29.252519599999996
  endloop
endfacet
facet normal -0.5727649533927807 -0.8197196521768683 0.0
  outer loop
    vertex 91.58442119819043 74.28982399189191 29.252519599999996
    vertex 84.05631236989342 79.54996005270819 0.0
    vertex 91.58442119819043 74.28982399189191 0.0
  endloop
endfacet
facet normal -0.5727649533927807 -0.8197196521768683 0.0
  outer loop
    vertex 84.05631236989342 79.54996005270819 0.0
    vertex 91.58442119819043 74.28982399189191 29.252519599999996
    vertex 84.05631236989342 79.54996005270819 29.252519599999996
  endloop
endfacet
facet normal -0.5727649533927804 -0.8197196521768686 0.0
  outer loop
    vertex 93.33281763275248 73.06816217166515 29.252519599999996
    vertex 91.58442119819043 74.28982399189191 0.0
    vertex 93.33281763275248 73.06816217166515 0.0
  endloop
endfacet
facet normal -0.5727649533927804 -0.8197196521768686 0.0
  outer loop
    vertex 91.58442119819043 74.28982399189191 0.0
    vertex 93.33281763275248 73.06816217166515 29.252519599999996
    vertex 91.58442119819043 74.28982399189191 29.252519599999996
  endloop
endfacet
facet normal -0.7334700073360013 -0.679721816876968 -0.0
  outer loop
    vertex 93.33281763275248 73.06816217166515 29.252519599999996
    vertex 101.02501214680913 64.7677165679362 0.0
    vertex 101.02501214680913 64.7677165679362 29.252519599999996
  endloop
endfacet
facet normal -0.7334700073360013 -0.679721816876968 -0.0
  outer loop
    vertex 101.02501214680913 64.7677165679362 0.0
    vertex 93.33281763275248 73.06816217166515 29.252519599999996
    vertex 93.33281763275248 73.06816217166515 0.0
  endloop
endfacet
facet normal -0.8608568134087174 -0.5088472725757592 -0.0
  outer loop
    vertex 101.02501214680913 64.7677165679362 29.252519599999996
    vertex 106.78347406669248 55.02567520178509 0.0
    vertex 106.78347406669248 55.02567520178509 29.252519599999996
  endloop
endfacet
facet normal -0.8608568134087174 -0.5088472725757592 -0.0
  outer loop
    vertex 106.78347406669248 55.02567520178509 0.0
    vertex 101.02501214680913 64.7677165679362 29.252519599999996
    vertex 101.02501214680913 64.7677165679362 0.0
  endloop
endfacet
facet normal -0.9491387612005285 -0.31485808229538287 -0.0
  outer loop
    vertex 106.78347406669248 55.02567520178509 29.252519599999996
    vertex 110.34662233294465 44.28457525367685 0.0
    vertex 110.34662233294465 44.28457525367685 29.252519599999996
  endloop
endfacet
facet normal -0.9491387612005285 -0.31485808229538287 -0.0
  outer loop
    vertex 110.34662233294465 44.28457525367685 0.0
    vertex 106.78347406669248 55.02567520178509 29.252519599999996
    vertex 106.78347406669248 55.02567520178509 0.0
  endloop
endfacet
facet normal -0.9943055983635576 -0.10656630359962746 -0.0
  outer loop
    vertex 110.34662233294465 44.28457525367685 29.252519599999996
    vertex 111.55259912459546 33.032336647935075 0.0
    vertex 111.55259912459546 33.032336647935075 29.252519599999996
  endloop
endfacet
facet normal -0.9943055983635576 -0.10656630359962746 -0.0
  outer loop
    vertex 111.55259912459546 33.032336647935075 0.0
    vertex 110.34662233294465 44.28457525367685 29.252519599999996
    vertex 110.34662233294465 44.28457525367685 0.0
  endloop
endfacet
facet normal -0.9943055983635574 0.10656630359962943 0.0
  outer loop
    vertex 111.55259912459546 33.032336647935075 29.252519599999996
    vertex 110.34662233294462 21.780098042193302 0.0
    vertex 110.34662233294462 21.780098042193302 29.252519599999996
  endloop
endfacet
facet normal -0.9943055983635574 0.10656630359962943 0.0
  outer loop
    vertex 110.34662233294462 21.780098042193302 0.0
    vertex 111.55259912459546 33.032336647935075 29.252519599999996
    vertex 111.55259912459546 33.032336647935075 0.0
  endloop
endfacet
facet normal -0.9491387612005292 0.3148580822953814 0.0
  outer loop
    vertex 110.34662233294462 21.780098042193302 29.252519599999996
    vertex 106.78347406669248 11.038998094085075 0.0
    vertex 106.78347406669248 11.038998094085075 29.252519599999996
  endloop
endfacet
facet normal -0.9491387612005292 0.3148580822953814 0.0
  outer loop
    vertex 106.78347406669248 11.038998094085075 0.0
    vertex 110.34662233294462 21.780098042193302 29.252519599999996
    vertex 110.34662233294462 21.780098042193302 0.0
  endloop
endfacet
facet normal -0.8608568134087166 0.5088472725757603 0.0
  outer loop
    vertex 106.78347406669248 11.038998094085075 29.252519599999996
    vertex 101.02501214680912 1.296956727933967 0.0
    vertex 101.02501214680912 1.296956727933967 29.252519599999996
  endloop
endfacet
facet normal -0.8608568134087166 0.5088472725757603 0.0
  outer loop
    vertex 101.02501214680912 1.296956727933967 0.0
    vertex 106.78347406669248 11.038998094085075 29.252519599999996
    vertex 106.78347406669248 11.038998094085075 0.0
  endloop
endfacet
facet normal -0.7334700073360028 0.6797218168769664 0.0
  outer loop
    vertex 101.02501214680912 1.296956727933967 29.252519599999996
    vertex 93.33281763275248 -7.003488875794994 0.0
    vertex 93.33281763275248 -7.003488875794994 29.252519599999996
  endloop
endfacet
facet normal -0.7334700073360028 0.6797218168769664 0.0
  outer loop
    vertex 93.33281763275248 -7.003488875794994 0.0
    vertex 101.02501214680912 1.296956727933967 29.252519599999996
    vertex 101.02501214680912 1.296956727933967 0.0
  endloop
endfacet
facet normal -0.5727649533927794 0.819719652176869 0.0
  outer loop
    vertex 84.0563123698934 -13.485286756838022 29.252519599999996
    vertex 93.33281763275248 -7.003488875794994 0.0
    vertex 84.0563123698934 -13.485286756838022 0.0
  endloop
endfacet
facet normal -0.5727649533927794 0.819719652176869 0.0
  outer loop
    vertex 93.33281763275248 -7.003488875794994 0.0
    vertex 84.0563123698934 -13.485286756838022 29.252519599999996
    vertex 93.33281763275248 -7.003488875794994 29.252519599999996
  endloop
endfacet
facet normal -0.3860417603330129 0.922481305652851 0.0
  outer loop
    vertex 73.61688632459544 -17.85399795206491 29.252519599999996
    vertex 84.0563123698934 -13.485286756838022 0.0
    vertex 73.61688632459544 -17.85399795206491 0.0
  endloop
endfacet
facet normal -0.3860417603330129 0.922481305652851 0.0
  outer loop
    vertex 84.0563123698934 -13.485286756838022 0.0
    vertex 73.61688632459544 -17.85399795206491 29.252519599999996
    vertex 84.0563123698934 -13.485286756838022 29.252519599999996
  endloop
endfacet
facet normal 1.0 -0.0 -0.0
  outer loop
    vertex 73.61688632459544 38.72425268426964 0.0
    vertex 73.61688632459544 -17.85399795206491 29.252519599999996
    vertex 73.61688632459544 -17.85399795206491 0.0
  endloop
endfacet
facet normal 1.0 -0.0 -0.0
  outer loop
    vertex 73.61688632459544 -17.85399795206491 29.252519599999996
    vertex 73.61688632459544 38.72425268426964 0.0
    vertex 73.61688632459544 38.72425268426964 29.252519599999996
  endloop
endfacet
facet normal 1.0 -0.0 -0.0
  outer loop
    vertex 73.61688632459544 57.75095108374251 0.0
    vertex 73.61688632459544 38.72425268426964 29.252519599999996
    vertex 73.61688632459544 38.72425268426964 0.0
  endloop
endfacet
facet normal 1.0 -0.0 -0.0
  outer loop
    vertex 73.61688632459544 38.72425268426964 29.252519599999996
    vertex 73.61688632459544 57.75095108374251 0.0
    vertex 73.61688632459544 57.75095108374251 29.252519599999996
  endloop
endfacet
facet normal -0.5727649533927798 0.819719652176869 -4.982422616400476e-18
  outer loop
    vertex 54.02506187702136 38.53096199855453 35.93522243397542
    vertex 62.506261740505046 44.457053963804796 0.0
    vertex 54.02506187702136 38.53096199855453 0.0
  endloop
endfacet
facet normal -0.5727649533927798 0.819719652176869 -4.982422616400476e-18
  outer loop
    vertex 62.506261740505046 44.457053963804796 0.0
    vertex 54.02506187702136 38.53096199855453 35.93522243397542
    vertex 62.506261740505046 44.457053963804796 29.252519599999996
  endloop
endfacet
facet normal -0.5727649533927798 0.819719652176869 -4.982422616400476e-18
  outer loop
    vertex 62.506261740505046 44.457053963804796 29.252519599999996
    vertex 54.02506187702136 38.53096199855453 35.93522243397542
    vertex 62.506261740505046 44.457053963804796 35.93522243397542
  endloop
endfacet
facet normal 0.44859353778835537 -0.8937358881988166 2.304508541896996e-19
  outer loop
    vertex 63.14966072176244 29.71132389766462 35.93522243397542
    vertex 62.506261740505046 29.38838215500578 0.0
    vertex 63.14966072176244 29.71132389766462 0.0
  endloop
endfacet
facet normal 0.44859353778835537 -0.8937358881988166 2.304508541896996e-19
  outer loop
    vertex 62.506261740505046 29.38838215500578 0.0
    vertex 63.14966072176244 29.71132389766462 35.93522243397542
    vertex 62.506261740505046 29.38838215500578 29.252519599999996
  endloop
endfacet
facet normal 0.44859353778835537 -0.8937358881988166 2.304508541896996e-19
  outer loop
    vertex 62.506261740505046 29.38838215500578 29.252519599999996
    vertex 63.14966072176244 29.71132389766462 35.93522243397542
    vertex 62.506261740505046 29.38838215500578 35.93522243397542
  endloop
endfacet
facet normal 0.992464033102786 0.1225362925722518 -1.4488294434240628e-18
  outer loop
    vertex 90.94705609865937 101.69195163011872 0.0
    vertex 92.45793140670956 89.45484725666337 29.252519599999996
    vertex 92.45793140670956 89.45484725666337 0.0
  endloop
endfacet
facet normal 0.992464033102786 0.1225362925722518 -1.4488294434240628e-18
  outer loop
    vertex 92.45793140670956 89.45484725666337 29.252519599999996
    vertex 90.94705609865937 101.69195163011872 0.0
    vertex 92.45793140670956 89.45484725666337 35.93522243397542
  endloop
endfacet
facet normal 0.992464033102786 0.1225362925722518 -1.4488294434240628e-18
  outer loop
    vertex 92.45793140670956 89.45484725666337 35.93522243397542
    vertex 90.94705609865937 101.69195163011872 0.0
    vertex 90.94705609865937 101.69195163011872 35.93522243397542
  endloop
endfacet
facet normal -0.9943055983635575 -0.10656630359962735 4.968206382955666e-19
  outer loop
    vertex 80.40046621323397 95.5068599813644 35.93522243397542
    vertex 81.5213486317234 85.04858540332762 0.0
    vertex 81.5213486317234 85.04858540332762 35.93522243397542
  endloop
endfacet
facet normal -0.9943055983635575 -0.10656630359962735 4.968206382955666e-19
  outer loop
    vertex 81.5213486317234 85.04858540332762 0.0
    vertex 80.40046621323397 95.5068599813644 35.93522243397542
    vertex 80.40046621323397 95.5068599813644 0.0
  endloop
endfacet
facet normal -0.9943055983635575 -0.10656630359962735 4.968206382955666e-19
  outer loop
    vertex 80.40046621323397 95.5068599813644 0.0
    vertex 80.40046621323397 95.5068599813644 35.93522243397542
    vertex 80.40046621323397 95.5068599813644 29.252519599999996
  endloop
endfacet
facet normal -0.8608568134087164 0.5088472725757605 2.388943840480901e-18
  outer loop
    vertex 73.61688632459544 57.75095108374251 35.93522243397542
    vertex 70.99376165393707 53.31320548332652 0.0
    vertex 70.99376165393707 53.31320548332652 35.93522243397542
  endloop
endfacet
facet normal -0.8608568134087164 0.5088472725757605 2.388943840480901e-18
  outer loop
    vertex 70.99376165393707 53.31320548332652 0.0
    vertex 73.61688632459544 57.75095108374251 35.93522243397542
    vertex 73.61688632459544 57.75095108374251 0.0
  endloop
endfacet
facet normal -0.8608568134087164 0.5088472725757605 2.388943840480901e-18
  outer loop
    vertex 73.61688632459544 57.75095108374251 0.0
    vertex 73.61688632459544 57.75095108374251 35.93522243397542
    vertex 73.61688632459544 57.75095108374251 29.252519599999996
  endloop
endfacet
facet normal -0.9943055983635575 0.10656630359962853 1.1074139547870353e-18
  outer loop
    vertex 81.06613832231201 80.80129386940106 35.93522243397542
    vertex 80.31537184007257 73.79634679758585 0.0
    vertex 80.31537184007257 73.79634679758585 35.93522243397542
  endloop
endfacet
facet normal -0.9943055983635575 0.10656630359962853 1.1074139547870353e-18
  outer loop
    vertex 80.31537184007257 73.79634679758585 0.0
    vertex 81.06613832231201 80.80129386940106 35.93522243397542
    vertex 81.06613832231201 80.80129386940106 0.0
  endloop
endfacet
facet normal -0.9943055983635575 0.10656630359962853 1.1074139547870353e-18
  outer loop
    vertex 81.06613832231201 80.80129386940106 0.0
    vertex 81.06613832231201 80.80129386940106 35.93522243397542
    vertex 81.06613832231201 80.80129386940106 29.252519599999996
  endloop
endfacet
facet normal 0.992464033102786 -0.12253629257225163 1.754565012674309e-18
  outer loop
    vertex 92.957364247633 85.40976705093918 0.0
    vertex 91.58442119819043 74.28982399189191 29.252519599999996
    vertex 91.58442119819043 74.28982399189191 0.0
  endloop
endfacet
facet normal 0.992464033102786 -0.12253629257225163 1.754565012674309e-18
  outer loop
    vertex 91.58442119819043 74.28982399189191 29.252519599999996
    vertex 92.957364247633 85.40976705093918 0.0
    vertex 91.58442119819043 74.28982399189191 35.93522243397542
  endloop
endfacet
facet normal 0.992464033102786 -0.12253629257225163 1.754565012674309e-18
  outer loop
    vertex 91.58442119819043 74.28982399189191 35.93522243397542
    vertex 92.957364247633 85.40976705093918 0.0
    vertex 92.957364247633 85.40976705093918 35.93522243397542
  endloop
endfacet
facet normal 0.6525017060409063 -0.7577872548504011 6.704226972526531e-19
  outer loop
    vertex 75.58178072176867 40.416148316110075 35.93522243397542
    vertex 73.61688632459544 38.72425268426964 0.0
    vertex 75.58178072176867 40.416148316110075 0.0
  endloop
endfacet
facet normal 0.6525017060409063 -0.7577872548504011 6.704226972526531e-19
  outer loop
    vertex 73.61688632459544 38.72425268426964 0.0
    vertex 75.58178072176867 40.416148316110075 35.93522243397542
    vertex 73.61688632459544 38.72425268426964 29.252519599999996
  endloop
endfacet
facet normal 0.6525017060409063 -0.7577872548504011 6.704226972526531e-19
  outer loop
    vertex 73.61688632459544 38.72425268426964 29.252519599999996
    vertex 75.58178072176867 40.416148316110075 35.93522243397542
    vertex 73.61688632459544 38.72425268426964 35.93522243397542
  endloop
endfacet
facet normal 0.0 0.0 -1.0
  outer loop
    vertex 63.30156713988044 125.0844109270577 0.0
    vertex 62.506261740505046 100.0237507955466 0.0
    vertex 54.02506187702137 131.56620880810073 0.0
  endloop
endfacet
facet normal 0.0 0.0 -1.0
  outer loop
    vertex 62.506261740505046 100.0237507955466 0.0
    vertex 63.30156713988044 125.0844109270577 0.0
    vertex 78.5184426401355 96.45150551256133 0.0
  endloop
endfacet
facet normal 0.0 0.0 -1.0
  outer loop
    vertex 78.5184426401355 96.45150551256133 0.0
    vertex 63.30156713988044 125.0844109270577 0.0
    vertex 70.99376165393709 116.78396532332876 0.0
  endloop
endfacet
facet normal 0.0 0.0 -1.0
  outer loop
    vertex 78.5184426401355 96.45150551256133 0.0
    vertex 70.99376165393709 116.78396532332876 0.0
    vertex 76.75222357382043 107.04192395717764 0.0
  endloop
endfacet
facet normal 0.0 0.0 -1.0
  outer loop
    vertex 78.5184426401355 96.45150551256133 0.0
    vertex 76.75222357382043 107.04192395717764 0.0
    vertex 80.31537184007259 96.3008240090694 0.0
  endloop
endfacet
facet normal 0.0 0.0 -1.0
  outer loop
    vertex 78.5184426401355 96.45150551256133 0.0
    vertex 80.31537184007259 96.3008240090694 0.0
    vertex 80.40046621323397 95.5068599813644 0.0
  endloop
endfacet
facet normal 0.0 0.0 -1.0
  outer loop
    vertex 54.02506187702137 131.56620880810073 0.0
    vertex 43.5856358317234 34.162250803327645 0.0
    vertex 43.5856358317234 135.93492000332765 0.0
  endloop
endfacet
facet normal 0.0 0.0 -1.0
  outer loop
    vertex 43.5856358317234 34.162250803327645 0.0
    vertex 54.02506187702137 131.56620880810073 0.0
    vertex 54.02506187702136 38.53096199855453 0.0
  endloop
endfacet
facet normal 0.0 0.0 -1.0
  outer loop
    vertex 54.02506187702136 38.53096199855453 0.0
    vertex 54.02506187702137 131.56620880810073 0.0
    vertex 62.506261740505046 44.457053963804796 0.0
  endloop
endfacet
facet normal 0.0 0.0 -1.0
  outer loop
    vertex 62.506261740505046 44.457053963804796 0.0
    vertex 54.02506187702137 131.56620880810073 0.0
    vertex 62.506261740505046 100.0237507955466 0.0
  endloop
endfacet
facet normal 0.0 0.0 -1.0
  outer loop
    vertex 62.506261740505046 100.0237507955466 0.0
    vertex 73.61688632459544 83.91867124793508 0.0
    vertex 62.506261740505046 44.457053963804796 0.0
  endloop
endfacet
facet normal 0.0 0.0 -1.0
  outer loop
    vertex 73.61688632459544 83.91867124793508 0.0
    vertex 62.506261740505046 100.0237507955466 0.0
    vertex 78.5184426401355 96.45150551256133 0.0
  endloop
endfacet
facet normal 0.0 0.0 -1.0
  outer loop
    vertex 62.506261740505046 44.457053963804796 0.0
    vertex 73.61688632459544 83.91867124793508 0.0
    vertex 63.30156713988044 45.01275987959756 0.0
  endloop
endfacet
facet normal 0.0 0.0 -1.0
  outer loop
    vertex 63.30156713988044 45.01275987959756 0.0
    vertex 73.61688632459544 83.91867124793508 0.0
    vertex 70.99376165393707 53.31320548332652 0.0
  endloop
endfacet
facet normal 0.0 0.0 -1.0
  outer loop
    vertex 73.61688632459544 83.91867124793508 0.0
    vertex 78.5184426401355 96.45150551256133 0.0
    vertex 81.06613832231201 80.80129386940106 0.0
  endloop
endfacet
facet normal 0.0 0.0 -1.0
  outer loop
    vertex 81.06613832231201 80.80129386940106 0.0
    vertex 78.5184426401355 96.45150551256133 0.0
    vertex 80.40046621323397 95.5068599813644 0.0
  endloop
endfacet
facet normal 0.0 0.0 -1.0
  outer loop
    vertex 81.06613832231201 80.80129386940106 0.0
    vertex 80.40046621323397 95.5068599813644 0.0
    vertex 81.5213486317234 85.04858540332762 0.0
  endloop
endfacet
facet normal 0.0 0.0 -1.0
  outer loop
    vertex 73.61688632459544 57.75095108374251 0.0
    vertex 70.99376165393707 53.31320548332652 0.0
    vertex 73.61688632459544 83.91867124793508 0.0
  endloop
endfacet
endsolid Double D
